<svg width="157" height="124" viewBox="0 0 157 124" fill="none" xmlns="http://www.w3.org/2000/svg">
<path d="M73.229 6.05388e-07C72.8067 6.05388e-07 72.4018 0.166754 72.1035 0.463425C71.8051 0.760096 71.6376 1.1624 71.638 1.58175V12.6402C71.638 13.5128 72.3503 14.2203 73.229 14.2203H97.0923C97.515 14.2207 97.9202 14.0544 98.2187 13.758C98.5173 13.4616 98.6852 13.0595 98.6852 12.6402V1.58175C98.6852 1.16213 98.518 0.759596 98.2187 0.462879C97.9202 0.166164 97.515 -0.000366418 97.0923 6.05388e-07H73.229ZM74.8212 3.16198H95.5016V11.0584H74.8212V3.16198ZM58.9076 16.5938C58.0289 16.5938 57.3167 17.3013 57.3167 18.174V29.2323C57.3163 29.6517 57.4838 30.054 57.7821 30.3506C58.0805 30.6473 58.4854 30.814 58.9076 30.814H82.771C83.1937 30.814 83.5981 30.6473 83.8967 30.3506C84.1952 30.054 84.3624 29.6517 84.3624 29.2323V18.174C84.3624 17.3013 83.6499 16.5938 82.771 16.5938H58.9076ZM87.5452 16.5938C87.1233 16.5934 86.7181 16.7597 86.4196 17.0561C86.121 17.3525 85.9531 17.7546 85.9531 18.174V29.2323C85.9531 29.652 86.1203 30.0545 86.4188 30.3512C86.7181 30.6479 87.1233 30.8145 87.5452 30.814H111.409C111.831 30.814 112.236 30.6473 112.535 30.3506C112.833 30.054 113.001 29.6517 113 29.2323V18.174C113 17.3013 112.288 16.5938 111.409 16.5938H87.5452ZM60.4985 19.7557H81.1803V27.6521H60.4985V19.7557ZM89.1367 19.7557H109.817V27.6521H89.1367V19.7557ZM44.5924 33.1875C43.7157 33.1867 43.0035 33.8906 43 34.7616V45.826C43 46.2455 43.1679 46.6475 43.4665 46.944C43.7653 47.2403 44.1703 47.4067 44.5924 47.4063H68.4561C69.3348 47.4063 70.0471 46.6988 70.0471 45.826V34.7616C70.0436 33.8913 69.3324 33.1875 68.4561 33.1875H44.5924ZM73.229 33.1875C72.3527 33.1875 71.6415 33.8913 71.638 34.7616V45.826C71.638 46.6988 72.3503 47.4063 73.229 47.4063H97.0923C97.515 47.4067 97.9202 47.2403 98.2187 46.944C98.5173 46.6475 98.6852 46.2455 98.6852 45.826V34.7616C98.6816 33.8906 97.9691 33.1867 97.0923 33.1875H73.229ZM46.1834 36.3433H66.8637V44.2459H46.1834V36.3433ZM74.8212 36.3433H95.5016V44.2459H74.8212V36.3433ZM58.9076 49.775C58.0289 49.775 57.3167 50.4826 57.3167 51.3553V62.4198C57.3167 63.2925 58.0289 64 58.9076 64H82.771C83.6499 64 84.3624 63.2925 84.3624 62.4198V51.3553C84.3624 50.4826 83.6499 49.775 82.771 49.775H58.9076ZM87.5452 49.775C87.1233 49.7747 86.7181 49.941 86.4196 50.2374C86.121 50.5338 85.9531 50.9359 85.9531 51.3553V62.4198C85.9531 62.8392 86.121 63.2413 86.4196 63.5377C86.7181 63.834 87.1233 64.0004 87.5452 64H111.409C112.288 64 113 63.2925 113 62.4198V51.3553C113 50.4826 112.288 49.775 111.409 49.775H87.5452ZM60.4985 52.9354H81.1803V60.8396H60.4985V52.9354ZM89.1367 52.9354H109.817V60.8396H89.1367V52.9354Z" fill="#111111"/>
<path d="M19.159 87.9106C18.9952 90.1099 18.1568 91.8413 16.6437 93.1048C15.1403 94.3682 13.1551 95 10.6879 95C7.98952 95 5.86452 94.1203 4.31293 92.3609C2.77098 90.5921 2 88.1679 2 85.0897V83.8399C2 81.8749 2.35658 80.1435 3.06973 78.6465C3.78289 77.1487 4.79961 76.0023 6.1199 75.2074C7.44983 74.4025 8.99182 74 10.7458 74C13.1743 74 15.1307 74.6317 16.6148 75.8952C18.0989 77.158 18.9566 78.9318 19.1879 81.2151H14.8512C14.7452 79.8956 14.3645 78.9411 13.7092 78.3518C13.0635 77.7524 12.0757 77.4534 10.7458 77.4534C9.30016 77.4534 8.21601 77.9587 7.4932 78.9692C6.78005 79.9703 6.41384 81.5285 6.39456 83.6437V85.1874C6.39456 87.396 6.73668 89.0103 7.42092 90.0308C8.11483 91.0507 9.20379 91.5602 10.6879 91.5602C12.0275 91.5602 13.025 91.2656 13.6803 90.6762C14.3452 90.0775 14.7259 89.1554 14.8223 87.9106H19.159ZM39.296 84.9632C39.296 86.9749 38.9297 88.7393 38.1973 90.2551C37.4649 91.7708 36.4144 92.9409 35.046 93.7645C33.6871 94.5882 32.1259 95 30.3623 95C28.6179 95 27.0615 94.5925 25.6931 93.7782C24.3246 92.9646 23.2645 91.8039 22.5128 90.2975C21.7611 88.781 21.3804 87.0403 21.3707 85.0753V84.0648C21.3707 82.0524 21.7418 80.2837 22.4838 78.7586C23.2356 77.2241 24.2908 76.049 25.6497 75.2355C27.0181 74.4118 28.5794 74 30.3334 74C32.0873 74 33.6437 74.4118 35.0026 75.2355C36.371 76.049 37.4263 77.2241 38.1684 78.7586C38.9201 80.2837 39.296 82.0481 39.296 84.0504V84.9632ZM34.9014 84.0368C34.9014 81.8936 34.5062 80.265 33.716 79.1517C32.9258 78.0377 31.7982 77.4814 30.3334 77.4814C28.8781 77.4814 27.7554 78.0334 26.9651 79.1373C26.1749 80.2327 25.7749 81.8418 25.7653 83.9664V84.9632C25.7653 87.0496 26.1605 88.6689 26.9507 89.8203C27.741 90.9709 28.8781 91.5466 30.3623 91.5466C31.8175 91.5466 32.9354 90.9946 33.716 89.89C34.4966 88.7767 34.8917 87.1574 34.9014 85.0329V84.0368ZM42.4473 94.719V74.2803H48.9235C50.7738 74.2803 52.4266 74.6878 53.8818 75.5021C55.3467 76.3071 56.4887 77.4577 57.3078 78.9548C58.127 80.4432 58.5366 82.1365 58.5366 84.0368V84.9769C58.5366 86.8771 58.1318 88.5661 57.3223 90.0445C56.5224 91.5229 55.3901 92.6692 53.9252 93.4835C52.4603 94.2978 50.8076 94.7096 48.9669 94.719H42.4473ZM46.7841 77.692V91.336H48.8801C50.5763 91.336 51.8725 90.7977 52.7687 89.7218C53.665 88.6452 54.1227 87.1064 54.1421 85.1034V84.0224C54.1421 81.9453 53.6987 80.3728 52.8121 79.3062C51.9255 78.2296 50.6293 77.692 48.9235 77.692H46.7841ZM74.3657 85.8616H66.0392V91.336H75.8113V94.719H61.7024V74.2803H75.7825V77.692H66.0392V82.5627H74.3657V85.8616ZM90.9323 84.6685H80.1478V94.719H79.3677V74.2803H92.4067V75.0385H80.1478V83.8823H90.9323V84.6685ZM111.214 86.0298C111.214 87.7985 110.886 89.366 110.231 90.7323C109.584 92.0892 108.659 93.1421 107.455 93.891C106.25 94.6299 104.862 95 103.292 95C100.921 95 99.0035 94.1807 97.538 92.5434C96.0733 90.9055 95.3413 88.6969 95.3413 85.9177V82.9695C95.3413 81.2101 95.664 79.6476 96.3094 78.2814C96.9652 76.9151 97.8948 75.8622 99.0997 75.1226C100.314 74.3745 101.701 74 103.263 74C104.834 74 106.221 74.3745 107.426 75.1226C108.64 75.8622 109.575 76.9194 110.231 78.295C110.886 79.6613 111.214 81.2194 111.214 82.9695V86.0298ZM110.433 82.9415C110.433 80.4713 109.787 78.4919 108.496 77.0042C107.204 75.5064 105.46 74.7582 103.263 74.7582C101.094 74.7582 99.3647 75.5021 98.0731 76.9898C96.7816 78.4682 96.1362 80.4849 96.1362 83.0399V86.0298C96.1362 87.6584 96.4249 89.0994 97.0036 90.3535C97.5913 91.5983 98.4247 92.5571 99.5046 93.2312C100.584 93.9047 101.846 94.2418 103.292 94.2418C105.489 94.2418 107.229 93.4979 108.511 92.0094C109.792 90.5217 110.433 88.4914 110.433 85.9177V82.9415ZM124.036 85.9737H116.736V94.719H115.955V74.2803H122.663C124.773 74.2803 126.45 74.8093 127.693 75.8672C128.946 76.9244 129.573 78.3611 129.573 80.1766C129.573 81.5709 129.124 82.792 128.228 83.8399C127.341 84.8791 126.209 85.5245 124.831 85.7775L130.454 94.5228V94.719H129.63L124.036 85.9737ZM116.736 85.2155H123.371C124.99 85.2155 126.296 84.7383 127.289 83.7838C128.291 82.8294 128.792 81.627 128.792 80.1766C128.792 78.5854 128.237 77.3312 127.129 76.4141C126.03 75.4971 124.523 75.0385 122.605 75.0385H116.736V85.2155ZM136.511 74.2803L145.17 93.61L153.858 74.2803H155V94.719H154.219V75.4036L145.489 94.719H144.867L136.178 75.5021V94.719H135.398V74.2803H136.511Z" fill="black"/>
<path d="M6.3125 119.164C5.75 119.826 4.92448 120.156 3.83594 120.156C2.9349 120.156 2.2474 119.896 1.77344 119.375C1.30469 118.849 1.06771 118.073 1.0625 117.047V111.547H2.50781V117.008C2.50781 118.289 3.02865 118.93 4.07031 118.93C5.17448 118.93 5.90885 118.518 6.27344 117.695V111.547H7.71875V120H6.34375L6.3125 119.164ZM11.2891 111.547L11.3359 112.609C11.9818 111.797 12.8255 111.391 13.8672 111.391C15.6536 111.391 16.5547 112.398 16.5703 114.414V120H15.125V114.406C15.1198 113.797 14.9792 113.346 14.7031 113.055C14.4323 112.763 14.0078 112.617 13.4297 112.617C12.9609 112.617 12.5495 112.742 12.1953 112.992C11.8411 113.242 11.5651 113.57 11.3672 113.977V120H9.92188V111.547H11.2891ZM19.4609 120V112.664H18.125V111.547H19.4609V110.68C19.4609 109.773 19.7031 109.073 20.1875 108.578C20.6719 108.083 21.3568 107.836 22.2422 107.836C22.5755 107.836 22.9062 107.88 23.2344 107.969L23.1562 109.141C22.9115 109.094 22.651 109.07 22.375 109.07C21.9062 109.07 21.5443 109.208 21.2891 109.484C21.0339 109.755 20.9062 110.146 20.9062 110.656V111.547H22.7109V112.664H20.9062V120H19.4609ZM23.9297 115.695C23.9297 114.867 24.0911 114.122 24.4141 113.461C24.7422 112.799 25.1953 112.289 25.7734 111.93C26.3568 111.57 27.0208 111.391 27.7656 111.391C28.9167 111.391 29.8464 111.789 30.5547 112.586C31.2682 113.383 31.625 114.443 31.625 115.766V115.867C31.625 116.69 31.4661 117.43 31.1484 118.086C30.8359 118.737 30.3854 119.245 29.7969 119.609C29.2135 119.974 28.5417 120.156 27.7812 120.156C26.6354 120.156 25.7057 119.758 24.9922 118.961C24.2839 118.164 23.9297 117.109 23.9297 115.797V115.695ZM25.3828 115.867C25.3828 116.805 25.599 117.557 26.0312 118.125C26.4688 118.693 27.0521 118.977 27.7812 118.977C28.5156 118.977 29.099 118.69 29.5312 118.117C29.9635 117.539 30.1797 116.732 30.1797 115.695C30.1797 114.768 29.9583 114.018 29.5156 113.445C29.0781 112.867 28.4948 112.578 27.7656 112.578C27.0521 112.578 26.4766 112.862 26.0391 113.43C25.6016 113.997 25.3828 114.81 25.3828 115.867ZM37.5234 112.844C37.3047 112.807 37.0677 112.789 36.8125 112.789C35.8646 112.789 35.2214 113.193 34.8828 114V120H33.4375V111.547H34.8438L34.8672 112.523C35.3411 111.768 36.013 111.391 36.8828 111.391C37.1641 111.391 37.3776 111.427 37.5234 111.5V112.844ZM40.2188 111.547L40.2578 112.484C40.8776 111.755 41.7135 111.391 42.7656 111.391C43.9479 111.391 44.7526 111.844 45.1797 112.75C45.4609 112.344 45.8255 112.016 46.2734 111.766C46.7266 111.516 47.2604 111.391 47.875 111.391C49.7292 111.391 50.6719 112.372 50.7031 114.336V120H49.2578V114.422C49.2578 113.818 49.1198 113.367 48.8438 113.07C48.5677 112.768 48.1042 112.617 47.4531 112.617C46.9167 112.617 46.4714 112.779 46.1172 113.102C45.763 113.419 45.5573 113.849 45.5 114.391V120H44.0469V114.461C44.0469 113.232 43.4453 112.617 42.2422 112.617C41.2943 112.617 40.6458 113.021 40.2969 113.828V120H38.8516V111.547H40.2188ZM64.0156 115.867C64.0156 117.159 63.7188 118.198 63.125 118.984C62.5312 119.766 61.7344 120.156 60.7344 120.156C59.6667 120.156 58.8411 119.779 58.2578 119.023L58.1875 120H56.8594V108H58.3047V112.477C58.888 111.753 59.6927 111.391 60.7188 111.391C61.7448 111.391 62.5495 111.779 63.1328 112.555C63.7214 113.331 64.0156 114.393 64.0156 115.742V115.867ZM62.5703 115.703C62.5703 114.719 62.3802 113.958 62 113.422C61.6198 112.885 61.0729 112.617 60.3594 112.617C59.4062 112.617 58.7214 113.06 58.3047 113.945V117.602C58.7474 118.487 59.4375 118.93 60.375 118.93C61.0677 118.93 61.6068 118.661 61.9922 118.125C62.3776 117.589 62.5703 116.781 62.5703 115.703ZM68.5156 117.883L70.4844 111.547H72.0312L68.6328 121.305C68.1068 122.711 67.2708 123.414 66.125 123.414L65.8516 123.391L65.3125 123.289V122.117L65.7031 122.148C66.1927 122.148 66.5729 122.049 66.8438 121.852C67.1198 121.654 67.3464 121.292 67.5234 120.766L67.8438 119.906L64.8281 111.547H66.4062L68.5156 117.883ZM80.5859 118.336C81.0026 118.336 81.3411 118.221 81.6016 117.992C81.862 117.763 81.9974 117.458 82.0078 117.078H84.125C84.1198 117.651 83.9635 118.177 83.6562 118.656C83.349 119.13 82.9271 119.5 82.3906 119.766C81.8594 120.026 81.2708 120.156 80.625 120.156C79.4167 120.156 78.4635 119.773 77.7656 119.008C77.0677 118.237 76.7188 117.174 76.7188 115.82V115.672C76.7188 114.37 77.0651 113.331 77.7578 112.555C78.4505 111.779 79.401 111.391 80.6094 111.391C81.6667 111.391 82.513 111.693 83.1484 112.297C83.7891 112.896 84.1146 113.695 84.125 114.695H82.0078C81.9974 114.258 81.862 113.904 81.6016 113.633C81.3411 113.357 80.9974 113.219 80.5703 113.219C80.0443 113.219 79.6458 113.411 79.375 113.797C79.1094 114.177 78.9766 114.797 78.9766 115.656V115.891C78.9766 116.76 79.1094 117.385 79.375 117.766C79.6406 118.146 80.0443 118.336 80.5859 118.336ZM85.0625 115.695C85.0625 114.857 85.224 114.109 85.5469 113.453C85.8698 112.797 86.3333 112.289 86.9375 111.93C87.5469 111.57 88.2526 111.391 89.0547 111.391C90.1953 111.391 91.125 111.74 91.8438 112.438C92.5677 113.135 92.9714 114.083 93.0547 115.281L93.0703 115.859C93.0703 117.156 92.7083 118.198 91.9844 118.984C91.2604 119.766 90.2891 120.156 89.0703 120.156C87.8516 120.156 86.8776 119.766 86.1484 118.984C85.4245 118.203 85.0625 117.141 85.0625 115.797V115.695ZM87.3203 115.859C87.3203 116.661 87.4714 117.276 87.7734 117.703C88.0755 118.125 88.5078 118.336 89.0703 118.336C89.6172 118.336 90.0443 118.128 90.3516 117.711C90.6589 117.289 90.8125 116.617 90.8125 115.695C90.8125 114.909 90.6589 114.299 90.3516 113.867C90.0443 113.435 89.612 113.219 89.0547 113.219C88.5026 113.219 88.0755 113.435 87.7734 113.867C87.4714 114.294 87.3203 114.958 87.3203 115.859ZM94.1094 115.711C94.1094 114.393 94.4036 113.344 94.9922 112.562C95.5859 111.781 96.3958 111.391 97.4219 111.391C98.2448 111.391 98.9245 111.698 99.4609 112.312V108H101.727V120H99.6875L99.5781 119.102C99.0156 119.805 98.2917 120.156 97.4062 120.156C96.4115 120.156 95.612 119.766 95.0078 118.984C94.4089 118.198 94.1094 117.107 94.1094 115.711ZM96.3672 115.875C96.3672 116.667 96.5052 117.273 96.7812 117.695C97.0573 118.117 97.4583 118.328 97.9844 118.328C98.6823 118.328 99.1745 118.034 99.4609 117.445V114.109C99.1797 113.521 98.6927 113.227 98 113.227C96.9115 113.227 96.3672 114.109 96.3672 115.875ZM107.367 120.156C106.128 120.156 105.117 119.776 104.336 119.016C103.56 118.255 103.172 117.242 103.172 115.977V115.758C103.172 114.909 103.336 114.151 103.664 113.484C103.992 112.812 104.456 112.297 105.055 111.938C105.659 111.573 106.346 111.391 107.117 111.391C108.273 111.391 109.182 111.755 109.844 112.484C110.51 113.214 110.844 114.247 110.844 115.586V116.508H105.461C105.534 117.06 105.753 117.503 106.117 117.836C106.487 118.169 106.953 118.336 107.516 118.336C108.385 118.336 109.065 118.021 109.555 117.391L110.664 118.633C110.326 119.112 109.867 119.487 109.289 119.758C108.711 120.023 108.07 120.156 107.367 120.156ZM107.109 113.219C106.661 113.219 106.297 113.37 106.016 113.672C105.74 113.974 105.562 114.406 105.484 114.969H108.625V114.789C108.615 114.289 108.479 113.904 108.219 113.633C107.958 113.357 107.589 113.219 107.109 113.219ZM116.883 113.664C116.576 113.622 116.305 113.602 116.07 113.602C115.216 113.602 114.656 113.891 114.391 114.469V120H112.133V111.547H114.266L114.328 112.555C114.781 111.779 115.409 111.391 116.211 111.391C116.461 111.391 116.695 111.424 116.914 111.492L116.883 113.664ZM122.641 120C122.536 119.797 122.461 119.544 122.414 119.242C121.867 119.852 121.156 120.156 120.281 120.156C119.453 120.156 118.766 119.917 118.219 119.438C117.677 118.958 117.406 118.354 117.406 117.625C117.406 116.729 117.737 116.042 118.398 115.562C119.065 115.083 120.026 114.841 121.281 114.836H122.32V114.352C122.32 113.961 122.219 113.648 122.016 113.414C121.818 113.18 121.503 113.062 121.07 113.062C120.69 113.062 120.391 113.154 120.172 113.336C119.958 113.518 119.852 113.768 119.852 114.086H117.594C117.594 113.596 117.745 113.143 118.047 112.727C118.349 112.31 118.776 111.984 119.328 111.75C119.88 111.51 120.5 111.391 121.188 111.391C122.229 111.391 123.055 111.654 123.664 112.18C124.279 112.701 124.586 113.435 124.586 114.383V118.047C124.591 118.849 124.703 119.456 124.922 119.867V120H122.641ZM120.773 118.43C121.107 118.43 121.414 118.357 121.695 118.211C121.977 118.06 122.185 117.859 122.32 117.609V116.156H121.477C120.346 116.156 119.745 116.547 119.672 117.328L119.664 117.461C119.664 117.742 119.763 117.974 119.961 118.156C120.159 118.339 120.43 118.43 120.773 118.43ZM128.438 111.547L128.508 112.492C129.107 111.758 129.917 111.391 130.938 111.391C132.026 111.391 132.773 111.82 133.18 112.68C133.773 111.82 134.62 111.391 135.719 111.391C136.635 111.391 137.318 111.659 137.766 112.195C138.214 112.727 138.438 113.529 138.438 114.602V120H136.172V114.609C136.172 114.13 136.078 113.781 135.891 113.562C135.703 113.339 135.372 113.227 134.898 113.227C134.221 113.227 133.753 113.549 133.492 114.195L133.5 120H131.242V114.617C131.242 114.128 131.146 113.773 130.953 113.555C130.76 113.336 130.432 113.227 129.969 113.227C129.328 113.227 128.865 113.492 128.578 114.023V120H126.32V111.547H128.438ZM139.828 115.695C139.828 114.857 139.99 114.109 140.312 113.453C140.635 112.797 141.099 112.289 141.703 111.93C142.312 111.57 143.018 111.391 143.82 111.391C144.961 111.391 145.891 111.74 146.609 112.438C147.333 113.135 147.737 114.083 147.82 115.281L147.836 115.859C147.836 117.156 147.474 118.198 146.75 118.984C146.026 119.766 145.055 120.156 143.836 120.156C142.617 120.156 141.643 119.766 140.914 118.984C140.19 118.203 139.828 117.141 139.828 115.797V115.695ZM142.086 115.859C142.086 116.661 142.237 117.276 142.539 117.703C142.841 118.125 143.273 118.336 143.836 118.336C144.383 118.336 144.81 118.128 145.117 117.711C145.424 117.289 145.578 116.617 145.578 115.695C145.578 114.909 145.424 114.299 145.117 113.867C144.81 113.435 144.378 113.219 143.82 113.219C143.268 113.219 142.841 113.435 142.539 113.867C142.237 114.294 142.086 114.958 142.086 115.859ZM153.805 117.664C153.805 117.388 153.667 117.172 153.391 117.016C153.12 116.854 152.682 116.711 152.078 116.586C150.068 116.164 149.062 115.31 149.062 114.023C149.062 113.273 149.372 112.648 149.992 112.148C150.617 111.643 151.432 111.391 152.438 111.391C153.51 111.391 154.367 111.643 155.008 112.148C155.654 112.654 155.977 113.31 155.977 114.117H153.719C153.719 113.794 153.615 113.529 153.406 113.32C153.198 113.107 152.872 113 152.43 113C152.049 113 151.755 113.086 151.547 113.258C151.339 113.43 151.234 113.648 151.234 113.914C151.234 114.164 151.352 114.367 151.586 114.523C151.826 114.674 152.227 114.807 152.789 114.922C153.352 115.031 153.826 115.156 154.211 115.297C155.404 115.734 156 116.492 156 117.57C156 118.341 155.669 118.966 155.008 119.445C154.346 119.919 153.492 120.156 152.445 120.156C151.737 120.156 151.107 120.031 150.555 119.781C150.008 119.526 149.578 119.18 149.266 118.742C148.953 118.299 148.797 117.823 148.797 117.312H150.938C150.958 117.714 151.107 118.021 151.383 118.234C151.659 118.448 152.029 118.555 152.492 118.555C152.924 118.555 153.25 118.474 153.469 118.312C153.693 118.146 153.805 117.93 153.805 117.664Z" fill="black"/>
</svg>
