<svg width="213" height="153" viewBox="0 0 213 153" fill="none" xmlns="http://www.w3.org/2000/svg">
<path d="M100.409 8.34886e-07C99.8305 8.34886e-07 99.2759 0.229968 98.8672 0.639104C98.4584 1.04824 98.229 1.60305 98.2295 2.18138V17.4319C98.2295 18.6354 99.2053 19.6111 100.409 19.6111H133.098C133.677 19.6116 134.232 19.3823 134.641 18.9735C135.05 18.5648 135.28 18.0102 135.28 17.4319V2.18138C135.28 1.60268 135.051 1.04755 134.641 0.638352C134.232 0.229155 133.677 -0.000505323 133.098 8.34886e-07H100.409ZM102.59 4.36065H130.919V15.2505H102.59V4.36065ZM80.7909 22.8843C79.5873 22.8843 78.6116 23.86 78.6116 25.0635V40.314C78.6111 40.8923 78.8405 41.4471 79.2492 41.8562C79.6579 42.2654 80.2125 42.4953 80.7909 42.4953H113.48C114.059 42.4953 114.613 42.2654 115.022 41.8562C115.431 41.4471 115.66 40.8923 115.66 40.314V25.0635C115.66 23.86 114.684 22.8843 113.48 22.8843H80.7909ZM120.02 22.8843C119.442 22.8838 118.887 23.1131 118.478 23.5219C118.069 23.9306 117.839 24.4852 117.839 25.0635V40.314C117.839 40.8927 118.068 41.4478 118.477 41.857C118.887 42.2662 119.442 42.4959 120.02 42.4953H152.71C153.288 42.4953 153.843 42.2654 154.252 41.8562C154.66 41.4471 154.89 40.8923 154.889 40.314V25.0635C154.889 23.86 153.914 22.8843 152.71 22.8843H120.02ZM82.9702 27.2449H111.301V38.1347H82.9702V27.2449ZM122.2 27.2449H150.529V38.1347H122.2V27.2449ZM61.1814 45.7685C59.9804 45.7674 59.0048 46.7382 59 47.9393V63.1982C59 63.7766 59.23 64.3311 59.6391 64.7399C60.0483 65.1486 60.6031 65.378 61.1814 65.3775H93.8709C95.0745 65.3775 96.0503 64.4018 96.0503 63.1982V47.9393C96.0455 46.7391 95.0712 45.7685 93.8709 45.7685H61.1814ZM100.409 45.7685C99.2086 45.7685 98.2344 46.7391 98.2295 47.9393V63.1982C98.2295 64.4018 99.2053 65.3775 100.409 65.3775H133.098C133.677 65.378 134.232 65.1486 134.641 64.7399C135.05 64.3311 135.28 63.7766 135.28 63.1982V47.9393C135.275 46.7382 134.299 45.7674 133.098 45.7685H100.409ZM63.3607 50.1206H91.6895V61.019H63.3607V50.1206ZM102.59 50.1206H130.919V61.019H102.59V50.1206ZM80.7909 68.6442C79.5873 68.6442 78.6116 69.62 78.6116 70.8235V86.0825C78.6116 87.286 79.5873 88.2617 80.7909 88.2617H113.48C114.684 88.2617 115.66 87.286 115.66 86.0825V70.8235C115.66 69.62 114.684 68.6442 113.48 68.6442H80.7909ZM120.02 68.6442C119.442 68.6437 118.887 68.8731 118.478 69.2818C118.069 69.6906 117.839 70.2452 117.839 70.8235V86.0825C117.839 86.6608 118.069 87.2154 118.478 87.6241C118.887 88.0328 119.442 88.2622 120.02 88.2617H152.71C153.914 88.2617 154.889 87.286 154.889 86.0825V70.8235C154.889 69.62 153.914 68.6442 152.71 68.6442H120.02ZM82.9702 73.0027H111.301V83.9032H82.9702V73.0027ZM122.2 73.0027H150.529V83.9032H122.2V73.0027Z" fill="#111111"/>
<path d="M25.2109 128.527C24.9896 131.587 23.8568 133.996 21.8125 135.754C19.7812 137.512 17.099 138.391 13.7656 138.391C10.1198 138.391 7.2487 137.167 5.15234 134.719C3.06901 132.258 2.02734 128.885 2.02734 124.602V122.863C2.02734 120.129 2.50911 117.72 3.47266 115.637C4.4362 113.553 5.8099 111.958 7.59375 110.852C9.39062 109.732 11.474 109.172 13.8438 109.172C17.125 109.172 19.7682 110.051 21.7734 111.809C23.7786 113.566 24.9375 116.034 25.25 119.211H19.3906C19.2474 117.375 18.7331 116.047 17.8477 115.227C16.9753 114.393 15.6406 113.977 13.8438 113.977C11.8906 113.977 10.4258 114.68 9.44922 116.086C8.48568 117.479 7.99089 119.647 7.96484 122.59V124.738C7.96484 127.811 8.42708 130.057 9.35156 131.477C10.2891 132.896 11.7604 133.605 13.7656 133.605C15.5755 133.605 16.9232 133.195 17.8086 132.375C18.707 131.542 19.2214 130.259 19.3516 128.527H25.2109ZM52.418 124.426C52.418 127.225 51.9232 129.68 50.9336 131.789C49.944 133.898 48.5247 135.526 46.6758 136.672C44.8398 137.818 42.7305 138.391 40.3477 138.391C37.9909 138.391 35.888 137.824 34.0391 136.691C32.1901 135.559 30.7578 133.944 29.7422 131.848C28.7266 129.738 28.2122 127.316 28.1992 124.582V123.176C28.1992 120.376 28.7005 117.915 29.7031 115.793C30.7188 113.658 32.1445 112.023 33.9805 110.891C35.8294 109.745 37.9388 109.172 40.3086 109.172C42.6784 109.172 44.7812 109.745 46.6172 110.891C48.4661 112.023 49.8919 113.658 50.8945 115.793C51.9102 117.915 52.418 120.37 52.418 123.156V124.426ZM46.4805 123.137C46.4805 120.155 45.9466 117.889 44.8789 116.34C43.8112 114.79 42.2878 114.016 40.3086 114.016C38.3424 114.016 36.8255 114.784 35.7578 116.32C34.6901 117.844 34.1497 120.083 34.1367 123.039V124.426C34.1367 127.329 34.6706 129.582 35.7383 131.184C36.806 132.785 38.3424 133.586 40.3477 133.586C42.3138 133.586 43.8242 132.818 44.8789 131.281C45.9336 129.732 46.4674 127.479 46.4805 124.523V123.137ZM56.6758 138V109.562H65.4258C67.9258 109.562 70.1589 110.129 72.125 111.262C74.1042 112.382 75.6471 113.983 76.7539 116.066C77.8607 118.137 78.4141 120.493 78.4141 123.137V124.445C78.4141 127.089 77.8672 129.439 76.7734 131.496C75.6927 133.553 74.1628 135.148 72.1836 136.281C70.2044 137.414 67.9714 137.987 65.4844 138H56.6758ZM62.5352 114.309V133.293H65.3672C67.6589 133.293 69.4102 132.544 70.6211 131.047C71.832 129.549 72.4505 127.408 72.4766 124.621V123.117C72.4766 120.227 71.8776 118.039 70.6797 116.555C69.4818 115.057 67.7305 114.309 65.4258 114.309H62.5352ZM99.8008 125.676H88.5508V133.293H101.754V138H82.6914V109.562H101.715V114.309H88.5508V121.086H99.8008V125.676ZM122.184 124.016H107.613V138H106.559V109.562H124.176V110.617H107.613V122.922H122.184V124.016ZM149.586 125.91C149.586 128.371 149.143 130.552 148.258 132.453C147.385 134.341 146.135 135.806 144.508 136.848C142.88 137.876 141.005 138.391 138.883 138.391C135.68 138.391 133.089 137.251 131.109 134.973C129.13 132.694 128.141 129.621 128.141 125.754V121.652C128.141 119.204 128.577 117.03 129.449 115.129C130.335 113.228 131.591 111.763 133.219 110.734C134.859 109.693 136.734 109.172 138.844 109.172C140.966 109.172 142.841 109.693 144.469 110.734C146.109 111.763 147.372 113.234 148.258 115.148C149.143 117.049 149.586 119.217 149.586 121.652V125.91ZM148.531 121.613C148.531 118.176 147.659 115.422 145.914 113.352C144.169 111.268 141.812 110.227 138.844 110.227C135.914 110.227 133.577 111.262 131.832 113.332C130.087 115.389 129.215 118.195 129.215 121.75V125.91C129.215 128.176 129.605 130.181 130.387 131.926C131.181 133.658 132.307 134.992 133.766 135.93C135.224 136.867 136.93 137.336 138.883 137.336C141.852 137.336 144.202 136.301 145.934 134.23C147.665 132.16 148.531 129.335 148.531 125.754V121.613ZM166.91 125.832H157.047V138H155.992V109.562H165.055C167.906 109.562 170.172 110.298 171.852 111.77C173.544 113.241 174.391 115.24 174.391 117.766C174.391 119.706 173.785 121.405 172.574 122.863C171.376 124.309 169.846 125.207 167.984 125.559L175.582 137.727V138H174.469L166.91 125.832ZM157.047 124.777H166.012C168.199 124.777 169.964 124.113 171.305 122.785C172.659 121.457 173.336 119.784 173.336 117.766C173.336 115.552 172.587 113.807 171.09 112.531C169.605 111.255 167.568 110.617 164.977 110.617H157.047V124.777ZM183.766 109.562L195.465 136.457L207.203 109.562H208.746V138H207.691V111.125L195.895 138H195.055L183.316 111.262V138H182.262V109.562H183.766ZM61.5537 149.478C61.2021 149.891 60.6862 150.098 60.0059 150.098C59.4427 150.098 59.013 149.935 58.7168 149.609C58.4238 149.281 58.2757 148.796 58.2725 148.154V144.717H59.1758V148.13C59.1758 148.931 59.5013 149.331 60.1523 149.331C60.8424 149.331 61.3014 149.074 61.5293 148.56V144.717H62.4326V150H61.5732L61.5537 149.478ZM64.6641 144.717L64.6934 145.381C65.097 144.873 65.6243 144.619 66.2754 144.619C67.3919 144.619 67.9551 145.249 67.9648 146.509V150H67.0615V146.504C67.0583 146.123 66.9704 145.841 66.7979 145.659C66.6286 145.477 66.3633 145.386 66.002 145.386C65.709 145.386 65.4518 145.464 65.2305 145.62C65.0091 145.776 64.8366 145.981 64.7129 146.235V150H63.8096V144.717H64.6641ZM69.7715 150V145.415H68.9365V144.717H69.7715V144.175C69.7715 143.608 69.9229 143.171 70.2256 142.861C70.5283 142.552 70.9564 142.397 71.5098 142.397C71.7181 142.397 71.9248 142.425 72.1299 142.48L72.0811 143.213C71.9281 143.184 71.7653 143.169 71.5928 143.169C71.2998 143.169 71.0736 143.255 70.9141 143.428C70.7546 143.597 70.6748 143.841 70.6748 144.16V144.717H71.8027V145.415H70.6748V150H69.7715ZM72.5645 147.31C72.5645 146.792 72.6654 146.326 72.8672 145.913C73.0723 145.5 73.3555 145.181 73.7168 144.956C74.0814 144.731 74.4964 144.619 74.9619 144.619C75.6813 144.619 76.2624 144.868 76.7051 145.366C77.151 145.864 77.374 146.527 77.374 147.354V147.417C77.374 147.931 77.2747 148.394 77.0762 148.804C76.8809 149.211 76.5993 149.528 76.2314 149.756C75.8669 149.984 75.4469 150.098 74.9717 150.098C74.2555 150.098 73.6745 149.849 73.2285 149.351C72.7858 148.853 72.5645 148.193 72.5645 147.373V147.31ZM73.4727 147.417C73.4727 148.003 73.6077 148.473 73.8779 148.828C74.1514 149.183 74.516 149.36 74.9717 149.36C75.4307 149.36 75.7952 149.181 76.0654 148.823C76.3356 148.462 76.4707 147.957 76.4707 147.31C76.4707 146.73 76.3324 146.261 76.0557 145.903C75.7822 145.542 75.4176 145.361 74.9619 145.361C74.516 145.361 74.1562 145.539 73.8828 145.894C73.6094 146.248 73.4727 146.756 73.4727 147.417ZM81.0605 145.527C80.9238 145.505 80.7757 145.493 80.6162 145.493C80.0238 145.493 79.6217 145.745 79.4102 146.25V150H78.5068V144.717H79.3857L79.4004 145.327C79.6966 144.855 80.1165 144.619 80.6602 144.619C80.8359 144.619 80.9694 144.642 81.0605 144.688V145.527ZM82.7451 144.717L82.7695 145.303C83.1569 144.847 83.6794 144.619 84.3369 144.619C85.0758 144.619 85.5788 144.902 85.8457 145.469C86.0215 145.215 86.2493 145.01 86.5293 144.854C86.8125 144.697 87.1462 144.619 87.5303 144.619C88.6891 144.619 89.2783 145.233 89.2979 146.46V150H88.3945V146.514C88.3945 146.136 88.3083 145.854 88.1357 145.669C87.9632 145.48 87.6735 145.386 87.2666 145.386C86.9313 145.386 86.653 145.487 86.4316 145.688C86.2103 145.887 86.0817 146.156 86.0459 146.494V150H85.1377V146.538C85.1377 145.77 84.7617 145.386 84.0098 145.386C83.4173 145.386 83.012 145.638 82.7939 146.143V150H81.8906V144.717H82.7451ZM97.6182 147.417C97.6182 148.224 97.4326 148.874 97.0615 149.365C96.6904 149.854 96.1924 150.098 95.5674 150.098C94.9001 150.098 94.3841 149.862 94.0195 149.39L93.9756 150H93.1455V142.5H94.0488V145.298C94.4134 144.845 94.9163 144.619 95.5576 144.619C96.1989 144.619 96.7018 144.862 97.0664 145.347C97.4342 145.832 97.6182 146.496 97.6182 147.339V147.417ZM96.7148 147.314C96.7148 146.699 96.596 146.224 96.3584 145.889C96.1208 145.553 95.779 145.386 95.333 145.386C94.7373 145.386 94.3092 145.662 94.0488 146.216V148.501C94.3255 149.054 94.7568 149.331 95.3428 149.331C95.7757 149.331 96.1126 149.163 96.3535 148.828C96.5944 148.493 96.7148 147.988 96.7148 147.314ZM100.431 148.677L101.661 144.717H102.628L100.504 150.815C100.175 151.694 99.6527 152.134 98.9365 152.134L98.7656 152.119L98.4287 152.056V151.323L98.6729 151.343C98.9788 151.343 99.2165 151.281 99.3857 151.157C99.5583 151.034 99.6999 150.807 99.8105 150.479L100.011 149.941L98.126 144.717H99.1123L100.431 148.677ZM107.887 148.96C108.147 148.96 108.359 148.888 108.521 148.745C108.684 148.602 108.769 148.411 108.775 148.174H110.099C110.095 148.532 109.998 148.861 109.806 149.16C109.614 149.456 109.35 149.688 109.015 149.854C108.683 150.016 108.315 150.098 107.911 150.098C107.156 150.098 106.56 149.858 106.124 149.38C105.688 148.898 105.47 148.234 105.47 147.388V147.295C105.47 146.481 105.686 145.832 106.119 145.347C106.552 144.862 107.146 144.619 107.901 144.619C108.562 144.619 109.091 144.808 109.488 145.186C109.889 145.56 110.092 146.06 110.099 146.685H108.775C108.769 146.411 108.684 146.19 108.521 146.021C108.359 145.848 108.144 145.762 107.877 145.762C107.548 145.762 107.299 145.882 107.13 146.123C106.964 146.361 106.881 146.748 106.881 147.285V147.432C106.881 147.975 106.964 148.366 107.13 148.604C107.296 148.841 107.548 148.96 107.887 148.96ZM110.685 147.31C110.685 146.785 110.785 146.318 110.987 145.908C111.189 145.498 111.479 145.181 111.856 144.956C112.237 144.731 112.678 144.619 113.18 144.619C113.893 144.619 114.474 144.837 114.923 145.273C115.375 145.71 115.628 146.302 115.68 147.051L115.689 147.412C115.689 148.223 115.463 148.874 115.011 149.365C114.558 149.854 113.951 150.098 113.189 150.098C112.428 150.098 111.819 149.854 111.363 149.365C110.911 148.877 110.685 148.213 110.685 147.373V147.31ZM112.096 147.412C112.096 147.913 112.19 148.298 112.379 148.564C112.568 148.828 112.838 148.96 113.189 148.96C113.531 148.96 113.798 148.83 113.99 148.569C114.182 148.306 114.278 147.886 114.278 147.31C114.278 146.818 114.182 146.437 113.99 146.167C113.798 145.897 113.528 145.762 113.18 145.762C112.835 145.762 112.568 145.897 112.379 146.167C112.19 146.434 112.096 146.849 112.096 147.412ZM116.339 147.319C116.339 146.496 116.523 145.84 116.891 145.352C117.262 144.863 117.768 144.619 118.409 144.619C118.924 144.619 119.348 144.811 119.684 145.195V142.5H121.1V150H119.825L119.757 149.438C119.405 149.878 118.953 150.098 118.399 150.098C117.778 150.098 117.278 149.854 116.9 149.365C116.526 148.874 116.339 148.192 116.339 147.319ZM117.75 147.422C117.75 147.917 117.836 148.296 118.009 148.56C118.181 148.823 118.432 148.955 118.761 148.955C119.197 148.955 119.505 148.771 119.684 148.403V146.318C119.508 145.951 119.203 145.767 118.771 145.767C118.09 145.767 117.75 146.318 117.75 147.422ZM124.625 150.098C123.85 150.098 123.219 149.86 122.73 149.385C122.245 148.91 122.003 148.276 122.003 147.485V147.349C122.003 146.818 122.105 146.344 122.311 145.928C122.516 145.508 122.805 145.186 123.18 144.961C123.557 144.733 123.987 144.619 124.469 144.619C125.191 144.619 125.759 144.847 126.173 145.303C126.59 145.758 126.798 146.405 126.798 147.241V147.817H123.434C123.479 148.162 123.616 148.439 123.844 148.647C124.075 148.856 124.366 148.96 124.718 148.96C125.261 148.96 125.686 148.763 125.992 148.369L126.686 149.146C126.474 149.445 126.188 149.679 125.826 149.849C125.465 150.015 125.064 150.098 124.625 150.098ZM124.464 145.762C124.184 145.762 123.956 145.856 123.78 146.045C123.608 146.234 123.497 146.504 123.448 146.855H125.411V146.743C125.405 146.431 125.32 146.19 125.157 146.021C124.994 145.848 124.763 145.762 124.464 145.762ZM130.572 146.04C130.38 146.014 130.211 146.001 130.064 146.001C129.531 146.001 129.181 146.182 129.015 146.543V150H127.604V144.717H128.937L128.976 145.347C129.259 144.862 129.651 144.619 130.152 144.619C130.309 144.619 130.455 144.64 130.592 144.683L130.572 146.04ZM134.171 150C134.106 149.873 134.059 149.715 134.029 149.526C133.688 149.907 133.243 150.098 132.696 150.098C132.179 150.098 131.749 149.948 131.407 149.648C131.069 149.349 130.899 148.971 130.899 148.516C130.899 147.956 131.106 147.526 131.52 147.227C131.936 146.927 132.537 146.776 133.321 146.772H133.971V146.47C133.971 146.226 133.907 146.03 133.78 145.884C133.657 145.737 133.46 145.664 133.189 145.664C132.952 145.664 132.765 145.721 132.628 145.835C132.494 145.949 132.428 146.105 132.428 146.304H131.017C131.017 145.998 131.111 145.715 131.3 145.454C131.489 145.194 131.756 144.99 132.101 144.844C132.446 144.694 132.833 144.619 133.263 144.619C133.914 144.619 134.43 144.784 134.811 145.112C135.195 145.438 135.387 145.897 135.387 146.489V148.779C135.39 149.281 135.46 149.66 135.597 149.917V150H134.171ZM133.004 149.019C133.212 149.019 133.404 148.973 133.58 148.882C133.756 148.787 133.886 148.662 133.971 148.506V147.598H133.443C132.737 147.598 132.361 147.842 132.315 148.33L132.311 148.413C132.311 148.589 132.372 148.734 132.496 148.848C132.62 148.962 132.789 149.019 133.004 149.019ZM137.794 144.717L137.838 145.308C138.212 144.849 138.718 144.619 139.356 144.619C140.037 144.619 140.504 144.888 140.758 145.425C141.129 144.888 141.658 144.619 142.345 144.619C142.918 144.619 143.344 144.787 143.624 145.122C143.904 145.454 144.044 145.955 144.044 146.626V150H142.628V146.631C142.628 146.331 142.569 146.113 142.452 145.977C142.335 145.837 142.128 145.767 141.832 145.767C141.409 145.767 141.116 145.968 140.953 146.372L140.958 150H139.547V146.636C139.547 146.33 139.487 146.108 139.366 145.972C139.246 145.835 139.041 145.767 138.751 145.767C138.351 145.767 138.061 145.933 137.882 146.265V150H136.471V144.717H137.794ZM144.913 147.31C144.913 146.785 145.014 146.318 145.216 145.908C145.418 145.498 145.707 145.181 146.085 144.956C146.466 144.731 146.907 144.619 147.408 144.619C148.121 144.619 148.702 144.837 149.151 145.273C149.604 145.71 149.856 146.302 149.908 147.051L149.918 147.412C149.918 148.223 149.692 148.874 149.239 149.365C148.787 149.854 148.18 150.098 147.418 150.098C146.656 150.098 146.048 149.854 145.592 149.365C145.139 148.877 144.913 148.213 144.913 147.373V147.31ZM146.324 147.412C146.324 147.913 146.419 148.298 146.607 148.564C146.796 148.828 147.066 148.96 147.418 148.96C147.76 148.96 148.027 148.83 148.219 148.569C148.411 148.306 148.507 147.886 148.507 147.31C148.507 146.818 148.411 146.437 148.219 146.167C148.027 145.897 147.757 145.762 147.408 145.762C147.063 145.762 146.796 145.897 146.607 146.167C146.419 146.434 146.324 146.849 146.324 147.412ZM153.648 148.54C153.648 148.368 153.562 148.232 153.39 148.135C153.22 148.034 152.947 147.944 152.569 147.866C151.313 147.603 150.685 147.069 150.685 146.265C150.685 145.796 150.878 145.405 151.266 145.093C151.656 144.777 152.166 144.619 152.794 144.619C153.465 144.619 154 144.777 154.4 145.093C154.804 145.409 155.006 145.819 155.006 146.323H153.595C153.595 146.121 153.53 145.955 153.399 145.825C153.269 145.692 153.066 145.625 152.789 145.625C152.551 145.625 152.368 145.679 152.237 145.786C152.107 145.894 152.042 146.03 152.042 146.196C152.042 146.353 152.115 146.479 152.262 146.577C152.411 146.672 152.662 146.755 153.014 146.826C153.365 146.895 153.661 146.973 153.902 147.061C154.648 147.334 155.021 147.808 155.021 148.481C155.021 148.963 154.814 149.354 154.4 149.653C153.987 149.95 153.453 150.098 152.799 150.098C152.356 150.098 151.962 150.02 151.617 149.863C151.275 149.704 151.007 149.487 150.812 149.214C150.616 148.937 150.519 148.639 150.519 148.32H151.856C151.869 148.571 151.962 148.763 152.135 148.896C152.307 149.03 152.538 149.097 152.828 149.097C153.098 149.097 153.302 149.046 153.438 148.945C153.578 148.841 153.648 148.706 153.648 148.54Z" fill="black"/>
</svg>
